<svg width="220.1199951171875px" height="124.439990234375px" xmlns="http://www.w3.org/2000/svg" viewBox="139.94000244140625 12.780004882812499 220.1199951171875 124.439990234375" style="background: none;" preserveAspectRatio="xMidYMid"><defs><linearGradient id="editing-outline-gradient" x1="-0.41354545764260087" x2="1.4135454576426008" y1="0.09326335692419985" y2="0.9067366430758002"><stop offset="0" stop-color="#ffffff"></stop><stop offset="1" stop-color="#e5e7eb"></stop></linearGradient><filter id="editing-outline" x="-100%" y="-100%" width="300%" height="300%"><feMorphology in="SourceGraphic" operator="dilate" radius="1" result="outline"></feMorphology><feComposite operator="out" in="outline" in2="SourceAlpha"></feComposite></filter></defs><g filter="url(#editing-outline)"><g transform="translate(177.13501286506653, 97.43000030517578)"><path d="M2.05-15.62L2.05-15.62L2.05-15.62Q2.05-27.71 8.32-35.33L8.32-35.33L8.32-35.33Q14.98-43.58 26.56-43.58L26.56-43.58L26.56-43.58Q34.94-43.58 39.17-39.52L39.17-39.52L39.17-39.52Q43.39-35.46 43.39-26.88L43.39-26.88L43.39-26.88Q43.39-13.82 36.74-6.21L36.74-6.21L36.74-6.21Q30.14 1.28 19.07 1.28L19.07 1.28L19.07 1.28Q10.43 1.28 6.24-3.04L6.24-3.04L6.24-3.04Q2.05-7.36 2.05-15.62ZM18.88-28.86L18.88-28.86L18.88-28.86Q16-17.34 16-8.26L16-8.26L16-8.26Q16-6.08 16.74-4.67L16.74-4.67L16.74-4.67Q17.47-3.26 19.42-3.26L19.42-3.26L19.42-3.26Q21.38-3.26 22.59-4.19L22.59-4.19L22.59-4.19Q23.81-5.12 24.77-7.23L24.77-7.23L24.77-7.23Q26.30-10.69 27.74-18.02L27.74-18.02L27.74-18.02Q29.18-25.34 29.31-28.38L29.31-28.38L29.31-28.38Q29.44-31.42 29.44-33.73L29.44-33.73L29.44-33.73Q29.44-36.03 28.74-37.50L28.74-37.50L28.74-37.50Q28.03-38.98 26.14-38.98L26.14-38.98L26.14-38.98Q24.26-38.98 22.98-37.82L22.98-37.82L22.98-37.82Q20.61-35.65 18.88-28.86ZM59.65 0L45.95 0L53.76-42.05L53.76-42.05Q60.10-42.75 69.34-42.75L69.34-42.75L69.34-42.75Q78.59-42.75 82.88-40.06L82.88-40.06L82.88-40.06Q87.17-37.38 87.17-31.97L87.17-31.97L87.17-31.97Q87.17-26.56 84.38-23.17L84.38-23.17L84.38-23.17Q81.60-19.78 76.80-18.69L76.80-18.69L76.80-18.69Q77.89-13.38 80.38-9.09L80.38-9.09L80.38-9.09Q82.69-5.06 85.38-3.78L85.38-3.78L85.38-3.78Q84.42-1.09 82.46 0.10L82.46 0.10L82.46 0.10Q80.51 1.28 77.73 1.28L77.73 1.28L77.73 1.28Q74.94 1.28 72.77-0.35L72.77-0.35L72.77-0.35Q70.59-1.98 68.86-4.99L68.86-4.99L68.86-4.99Q65.22-11.52 64.83-21.82L64.83-21.82L65.28-21.82L65.28-21.82Q70.02-21.95 72.38-24.42L72.38-24.42L72.38-24.42Q74.75-26.88 74.75-32.06L74.75-32.06L74.75-32.06Q74.75-38.53 69.31-38.78L69.31-38.78L67.90-38.78L67.90-38.78Q67.33-38.78 67.01-38.72L67.01-38.72L59.65 0ZM95.55 0L88.19 0L99.78-42.24L113.15-42.24L116.10-18.11L128-42.24L139.20-42.24L140.35-10.62L140.35-10.62Q140.61-4.35 143.68-2.43L143.68-2.43L143.68-2.43Q142.98-1.15 140.93 0.06L140.93 0.06L140.93 0.06Q138.88 1.28 136.16 1.28L136.16 1.28L136.16 1.28Q133.44 1.28 131.84 0.51L131.84 0.51L131.84 0.51Q130.24-0.26 129.34-1.54L129.34-1.54L129.34-1.54Q127.74-3.84 127.74-8.26L127.74-8.26L127.74-28.03L115.14 0L107.20 0L102.72-28.74L95.55 0Z" fill="url(#editing-outline-gradient)"></path></g></g><style>text {
  font-size: 64px;
  font-family: Arial Black;
  dominant-baseline: central;
  text-anchor: middle;
}</style></svg>